<?xml version="1.0"?>
<svg xmlns="http://www.w3.org/2000/svg" height="512px" viewBox="-16 -39 518.66815 518" width="512px"><g><path d="m100.863281 402.515625c-12.210937.007813-22.953125-2.414063-32.148437-7.253906-19.3125-10.15625-24.199219-27.402344-24.398438-28.128907-.496094-1.847656-.363281-3.808593.375-5.570312l3.59375-8.472656c1.839844-4.351563 6.875-6.351563 11.179688-4.53125 4.339844 1.835937 6.363281 6.84375 4.535156 11.183594l-2.25 5.304687c1.710938 3.628906 6.011719 10.5625 15.285156 15.308594 14 7.171875 34.554688 6.691406 59.644532-1.367188l2.933593-15.414062c.875-4.628907 5.351563-7.707031 9.972657-6.785157 4.632812.878907 7.675781 5.34375 6.792968 9.976563l-3.863281 20.316406c-.570313 2.992188-2.695313 5.453125-5.5625 6.453125-17.109375 5.988282-32.507813 8.980469-46.089844 8.980469zm0 0" data-original="#000000" class="active-path" data-old_color="#000000" fill="#03C6FC"/><path d="m217.421875 438.824219c-80.492187.003906-158.773437-4.167969-200.234375-17.769531-2.097656-.6875-3.851562-2.160157-4.882812-4.113282-1.164063-2.210937-28.277344-54.335937 2.148437-74.804687 3.914063-2.621094 9.210937-1.601563 11.847656 2.308593 2.621094 3.914063 1.589844 9.210938-2.320312 11.839844-13.441407 9.050782-4.035157 36.917969 1.894531 49.621094 96.917969 29.082031 391.296875 9.6875 443.3125 5.984375v-4.992187l-57.769531-6.0625c-4.339844-.457032-7.640625-4.117188-7.640625-8.480469v-27.1875c0-4.707031 3.8125-8.53125 8.527344-8.53125 4.714843 0 8.53125 3.824219 8.53125 8.53125v19.503906l57.777343 6.0625c4.339844.457031 7.636719 4.117187 7.636719 8.484375v20.597656c0 4.457032-3.425781 8.160156-7.871094 8.503906-8.773437.683594-137.457031 10.503907-260.957031 10.503907zm0 0" data-original="#000000" class="active-path" data-old_color="#000000" fill="#03C6FC"/><path d="m373.058594 400.882812h-189.683594c-2.335938 0-4.578125-.964843-6.183594-2.65625-1.609375-1.699218-2.449218-3.988281-2.332031-6.328124l1.429687-27.175782c.25-4.710937 4.390626-8.359375 8.972657-8.070312 4.703125.242187 8.3125 4.261718 8.070312 8.964844l-.964843 18.203124h174.453124l6.742188-21.226562c1.414062-4.488281 6.195312-6.96875 10.707031-5.546875 4.492188 1.421875 6.976563 6.21875 5.550781 10.710937l-8.628906 27.171876c-1.125 3.546874-4.417968 5.953124-8.132812 5.953124zm0 0" data-original="#000000" class="active-path" data-old_color="#000000" fill="#03C6FC"/><path d="m160.234375 373.789062c-41.898437 0-97.699219-4.015624-154.03125-19.996093-3.667969-1.042969-6.203125-4.390625-6.203125-8.207031v-31.328126c0-4.710937 3.816406-8.527343 8.53125-8.527343s8.527344 3.816406 8.527344 8.527343v24.832032c96.617187 25.863281 192.632812 15.964844 208.789062 14.019531 56.433594-46.832031 118.269532-47.378906 120.902344-47.378906 4.714844 0 8.53125 3.816406 8.53125 8.527343v39.691407c29.234375 3.589843 60.785156-3.714844 73.171875-7.078125l5.730469-72.644532c.375-4.691406 4.476562-8.1875 9.179687-7.835937 4.691407.371094 8.195313 4.480469 7.832031 9.179687l-6.195312 78.519532c-.277344 3.441406-2.59375 6.378906-5.878906 7.445312-2.054688.667969-50.914063 16.261719-93.953125 8.101563-4.03125-.761719-6.945313-4.285157-6.945313-8.382813v-37.867187c-18.320312 1.921875-62.980468 10.0625-103.28125 44.367187-1.230468 1.042969-2.726562 1.714844-4.328125 1.945313-2.261719.316406-29.792969 4.089843-70.378906 4.089843zm0 0" data-original="#000000" class="active-path" data-old_color="#000000" fill="#03C6FC"/><path d="m160.847656 345.089844c-11.625 0-19.457031-.75-20.398437-.839844-86.480469-5.523438-133.542969-14.429688-139.550781-26.449219-.589844-1.183593-.898438-2.492187-.898438-3.816406v-25.59375c0-16.515625 12.53125-29.140625 32.691406-32.929687 59.296875-11.140626 197.789063-56.421876 203.0625-235.769532.117188-3.824218 2.757813-7.101562 6.460938-8.03125 1.175781-.296875 26.042968-6.246094 48.261718 9.328125 2.933594-3.800781 6.996094-8.261719 12.199219-12.164062 11.328125-8.488281 30.101563-15.964844 55.269531-3.382813 16.664063 8.328125 33.089844 17.632813 48.828126 27.648438 13.679687 8.71875 28.292968 25.050781 28.292968 44.765625v69.679687c8.679688 12.035156 42.203125 64.722656 16.246094 129.605469-1.191406 2.976563-3.960938 5.039063-7.152344 5.324219-1.488281.132812-149.355468 13.847656-188.28125 39.796875-29.296875 19.535156-70.558594 22.828125-95.03125 22.828125zm-143.789062-34.980469c12.976562 6.515625 73.066406 13.832031 124.78125 17.136719.957031.082031 66.464844 6.234375 104.578125-19.179688 38.492187-25.664062 163.039062-39.308594 190.855469-42.078125 21.46875-61.046875-16.976563-109.75-17.378907-110.246093-1.226562-1.511719-1.890625-3.40625-1.890625-5.355469v-72.53125c0-12.828125-10.984375-24.375-20.390625-30.371094-15.246093-9.703125-31.160156-18.714844-47.296875-26.777344-14.144531-7.085937-26.394531-6.507812-37.40625 1.769531-8.453125 6.335938-12.894531 14.929688-12.933594 15.011719-1.226562 2.449219-3.558593 4.164063-6.269531 4.605469-2.722656.421875-5.460937-.453125-7.394531-2.390625-11.5625-11.5625-25.78125-12.753906-33.78125-12.285156-9.105469 185.734375-154.132812 233.058593-216.691406 244.8125-4.410156.828125-18.78125 4.441406-18.78125 16.160156zm426.328125-36.140625h.085937zm0 0" data-original="#000000" class="active-path" data-old_color="#000000" fill="#03C6FC"/><path d="m86.378906 275.636719c-2.929687 0-5.789062-1.519531-7.378906-4.230469l-8.007812-13.734375c-2.359376-4.070313-.988282-9.292969 3.078124-11.664063 4.070313-2.371093 9.28125-.992187 11.667969 3.066407l8.007813 13.730469c2.367187 4.070312.992187 9.292968-3.070313 11.664062-1.351562.792969-2.835937 1.167969-4.296875 1.167969zm0 0" data-original="#000000" class="active-path" data-old_color="#000000" fill="#03C6FC"/><path d="m182.484375 234.4375c-1.757813 0-3.53125-.539062-5.050781-1.660156l-21.738282-16.019532c-3.796874-2.796874-4.609374-8.132812-1.8125-11.929687 2.792969-3.792969 8.148438-4.59375 11.925782-1.808594l21.742187 16.019531c3.796875 2.796876 4.605469 8.136719 1.808594 11.929688-1.667969 2.269531-4.261719 3.46875-6.875 3.46875zm0 0" data-original="#000000" class="active-path" data-old_color="#000000" fill="#03C6FC"/><path d="m306.082031 83.390625c-2.179687 0-4.367187-.828125-6.03125-2.5-23.851562-23.839844-53.179687-19.546875-54.398437-19.34375-4.667969.707031-9.015625-2.425781-9.773438-7.0625-.75-4.636719 2.371094-9.007813 7.003906-9.777344 1.558594-.257812 38.996094-6.101562 69.226563 24.125 3.335937 3.328125 3.335937 8.730469 0 12.058594-1.664063 1.671875-3.84375 2.5-6.027344 2.5zm0 0" data-original="#000000" class="active-path" data-old_color="#000000" fill="#03C6FC"/><path d="m285.476562 117.726562c-2.179687 0-4.363281-.835937-6.03125-2.5-23.355468-23.355468-39.480468-21.675781-39.613281-21.628906-4.664062.527344-8.910156-2.617187-9.59375-7.191406-.683593-4.570312 2.28125-8.839844 6.835938-9.644531 2.445312-.421875 24.695312-3.34375 54.433593 26.398437 3.332032 3.335938 3.332032 8.738282 0 12.066406-1.664062 1.664063-3.847656 2.5-6.03125 2.5zm0 0" data-original="#000000" class="active-path" data-old_color="#000000" fill="#03C6FC"/><path d="m271.757812 165.78125c-3.132812 0-6.144531-1.726562-7.640624-4.714844-11.3125-22.628906-40.730469-25.035156-41.015626-25.054687-4.691406-.339844-8.230468-4.417969-7.910156-9.109375.332032-4.683594 4.421875-8.261719 9.066406-7.910156 1.601563.101562 39.386719 2.976562 55.125 34.445312 2.109376 4.214844.398438 9.339844-3.8125 11.449219-1.230468.609375-2.53125.894531-3.8125.894531zm0 0" data-original="#000000" class="active-path" data-old_color="#000000" fill="#03C6FC"/><path d="m230.554688 206.980469c-3.382813 0-6.589844-2.03125-7.921876-5.363281-10.300781-25.765626-21.898437-24.695313-22.054687-24.644532-4.574219 1.140625-9.195313-1.640625-10.339844-6.207031-1.152343-4.574219 1.636719-9.203125 6.203125-10.347656 1.035156-.238281 25.722656-5.945313 42.03125 34.859375 1.75 4.378906-.382812 9.339844-4.753906 11.089844-1.03125.414062-2.105469.613281-3.164062.613281zm0 0" data-original="#000000" class="active-path" data-old_color="#000000" fill="#03C6FC"/><path d="m141.308594 261.90625c-3.132813 0-6.148438-1.734375-7.640625-4.714844-4.96875-9.933594-13.789063-12.667968-14.164063-12.773437-4.476562-1.339844-7.085937-6.046875-5.8125-10.535157 1.28125-4.492187 5.886719-7.15625 10.394532-5.90625.664062.183594 16.367187 4.632813 24.84375 21.578126 2.101562 4.21875.398437 9.34375-3.816407 11.449218-1.222656.613282-2.527343.902344-3.804687.902344zm0 0" data-original="#000000" class="active-path" data-old_color="#000000" fill="#03C6FC"/></g> </svg>
