<?xml version="1.0"?>
<svg xmlns="http://www.w3.org/2000/svg" xmlns:xlink="http://www.w3.org/1999/xlink" version="1.1" id="Capa_1" x="0px" y="0px" viewBox="0 0 512 512" style="enable-background:new 0 0 512 512;" xml:space="preserve" width="512px" height="512px"><g><g>
	<g>
		<path d="M48.016,270.313H25.86c-14.259,0-25.86,11.601-25.86,25.86v163.956c0,14.26,11.601,25.861,25.86,25.861h22.156    c14.259,0,25.86-11.601,25.86-25.861V296.173C73.876,281.914,62.275,270.313,48.016,270.313z M58.86,460.129    c0,5.98-4.864,10.845-10.844,10.845H25.86c-5.98,0-10.844-4.865-10.844-10.845V296.173c0-5.98,4.864-10.844,10.844-10.844h22.156    c5.98,0,10.844,4.864,10.844,10.844V460.129z" data-original="#000000" class="active-path" data-old_color="#000000" fill="#03C6FC"/>
	</g>
</g><g>
	<g>
		<path d="M506.738,335.788c-9.406-13.824-28.349-17.484-42.217-8.166L424.809,354.2c-3.266-12.785-9.799-24.665-19.009-34.275    c-10.832-11.302-24.949-19.069-40.181-22.188c-8.778-28.071-33.127-48.952-62.362-53.208    c-11.959-9.984-26.603-16.061-42.025-17.528v-23.596l17.849-15.452c8.836,3.927,29.368,11.989,54.745,14.939    c6.297,0.732,12.458,1.096,18.484,1.096c36.938,0,68.596-13.683,92.329-40.117c42.878-47.759,42.731-121.804,42.704-124.933    c0-0.029-0.006-0.057-0.007-0.086c-0.007-0.322-0.031-0.643-0.078-0.96c-0.026-0.189-0.067-0.373-0.106-0.559    c-0.01-0.045-0.02-0.089-0.031-0.134c-0.57-2.531-2.292-4.722-4.798-5.538c-3.028-0.986-6.182-0.153-8.112,2.357    c-0.739,0.678-5.791,4.984-20.201,10.244c-14.288,5.216-41.007,12.475-87.153,17.433c-55.622,5.975-78.962,37.998-88.748,63.808    c-8.14,21.47-8.343,41.906-7.987,50.346l-8.888,7.694v-15.195c0.18-0.939,0.179-1.901,0-2.835V53.501    c0-4.147-3.361-7.508-7.508-7.508c-4.147,0-7.508,3.361-7.508,7.508v96.877l-6.771-5.861c0.309-7.957,0.03-26.526-7.362-46.025    c-9.02-23.791-30.526-53.307-81.758-58.81c-42.001-4.513-66.361-11.105-79.4-15.842c-13.052-4.74-17.72-8.625-18.459-9.291    c-1.92-2.521-5.065-3.351-8.098-2.373c-2.524,0.814-4.25,3.033-4.813,5.587c-0.006,0.025-0.012,0.051-0.018,0.077    c-0.042,0.198-0.086,0.394-0.113,0.595c-0.047,0.316-0.071,0.636-0.078,0.957c-0.001,0.029-0.007,0.057-0.007,0.086    c-0.024,2.874-0.16,70.887,39.249,114.783c21.85,24.336,50.981,36.93,84.974,36.93c5.54,0,11.212-0.334,17-1.008    c22.944-2.667,41.596-9.891,49.923-13.561l15.73,13.618v28.874c-0.076,0.624-0.081,1.256,0,1.883v26.049    c-15.272,1.535-29.764,7.587-41.618,17.484c-29.235,4.255-53.584,25.138-62.362,53.209c-3.918,0.803-7.78,1.937-11.555,3.351    c-6.535-0.89-13.141-1.347-19.773-1.347h-9.675c-4.147,0-7.508,3.361-7.508,7.508c0,4.147,3.361,7.508,7.508,7.508h9.675    c6.632,0,13.232,0.52,19.75,1.51c2.7,0.409,5.375,0.905,8.028,1.475c0.496,0.107,0.992,0.212,1.486,0.325    c0.628,0.143,1.255,0.291,1.88,0.443c0.799,0.195,1.596,0.396,2.391,0.606c0.382,0.1,0.767,0.196,1.148,0.299    c1.245,0.34,2.485,0.697,3.719,1.074c0.212,0.064,0.422,0.132,0.634,0.198c1.152,0.358,2.3,0.729,3.442,1.118    c0.149,0.051,0.298,0.1,0.447,0.151c2.634,0.908,5.241,1.899,7.815,2.974c0.109,0.046,0.218,0.092,0.327,0.138    c1.262,0.531,2.517,1.079,3.763,1.649c0.021,0.009,0.042,0.019,0.063,0.028c1.271,0.583,2.533,1.187,3.786,1.811    c0.153,0.076,0.304,0.155,0.456,0.232c1.026,0.516,2.046,1.047,3.059,1.59c0.285,0.153,0.571,0.305,0.855,0.46    c1.156,0.63,2.307,1.273,3.445,1.939c16.54,9.676,34.548,15.943,53.524,18.628c0.065,0.01,0.129,0.018,0.194,0.025l77.564,8.93    c13.469,1.948,23.807,12.752,25.154,26.302l0.295,2.966l-136.166-5.387c-0.58-0.088-0.953-0.404-1.169-0.662    c-0.23-0.276-0.491-0.74-0.432-1.387c0.374-4.13-2.67-7.782-6.799-8.156c-4.136-0.377-7.782,2.671-8.156,6.799    c-0.408,4.501,0.961,8.89,3.856,12.361c2.894,3.47,6.965,5.605,11.466,6.014c0.126,0.011,0.253,0.02,0.38,0.024l153.547,6.074    l20.351,1.142c0.14,0.008,0.281,0.012,0.42,0.012c0.163,0,0.323-0.025,0.484-0.036c0.146-0.01,0.291-0.014,0.436-0.032    c0.26-0.032,0.514-0.086,0.768-0.145c0.123-0.028,0.247-0.048,0.368-0.083c0.278-0.079,0.547-0.183,0.814-0.294    c0.092-0.038,0.188-0.066,0.279-0.108c0.354-0.164,0.699-0.352,1.026-0.571l47.971-32.105c0.004-0.002,0.007-0.005,0.01-0.008    l49.294-32.99c7.046-4.735,16.663-2.876,21.437,4.141c4.365,6.416,3.282,15.138-2.555,20.322l-96.16,86.484    c-7.931,6.43-17.443,10.68-27.524,12.298l-148.937,21.47c-0.066,0.009-0.139,0.021-0.204,0.031    c-4.418,0.698-9.027,0.406-13.695-0.871L104.09,445.661c-3.879-1.468-8.212,0.484-9.68,4.362c-1.468,3.878,0.485,8.212,4.362,9.68    l101.473,38.427c0.203,0.077,0.41,0.146,0.62,0.204c4.455,1.258,8.908,1.889,13.317,1.889c2.393,0,4.775-0.186,7.134-0.559    c0.008-0.001,0.019-0.003,0.031-0.005l148.935-21.469c0.037-0.005,0.074-0.011,0.111-0.017    c12.769-2.038,24.816-7.435,34.838-15.61c0.094-0.076,0.186-0.154,0.276-0.236l96.262-86.577    C513.201,365.604,515.335,348.423,506.738,335.788z M433.466,153.839c-24.46,27.245-57.26,38.747-97.459,34.189    c-18.002-2.041-33.599-7.007-43.487-10.798c5.484-4.121,10.809-7.922,15.978-11.424c8.146,3.597,27.312,10.98,47.407,10.98    c3.143,0,6.311-0.181,9.461-0.585c4.113-0.529,7.019-4.291,6.491-8.403c-0.529-4.113-4.293-7.026-8.403-6.49    c-14.025,1.798-29.024-1.962-39.332-5.526c22.53-13.668,42.154-22.213,60.235-30.079c1.691-0.736,3.365-1.464,5.026-2.19    c5.755,1.766,19.232,5.16,37.871,5.16c0.416,0,0.839-0.002,1.26-0.005c4.146-0.034,7.479-3.423,7.446-7.569    c-0.034-4.125-3.388-7.446-7.507-7.446c-0.021,0-0.042,0-0.063,0c-5.899,0.043-11.226-0.297-15.885-0.819    c20.471-10.328,39.017-23.07,57.486-46.445C466.367,91.09,457.112,127.502,433.466,153.839z M292.149,130.826    c12.063-31.821,37.739-50.057,76.31-54.201c42.809-4.599,70.375-11.211,87.946-17.307c-21.634,26.484-43.385,37.405-70.402,49.281    c-0.022,0.009-0.043,0.019-0.065,0.028c-2.479,1.09-4.999,2.187-7.572,3.306c-5.816,2.53-11.791,5.132-17.962,7.938    c1.102-5.726,3.093-12.815,6.695-19.796c1.901-3.685,0.456-8.214-3.229-10.115c-3.685-1.9-8.214-0.457-10.115,3.229    c-7.021,13.606-8.98,27.414-9.525,34.369c-17.626,8.793-36.983,19.979-58.963,36.335    C285.808,155.043,287.503,143.081,292.149,130.826z M178.83,155.267c-36.778,4.274-66.738-6.169-89.067-31.039    c-20.821-23.19-29.396-54.983-32.93-77.421c8.72,10.722,17.969,19.544,28.219,26.966c6.889,4.988,13.992,9.168,21.296,12.947    c-4.582,0.425-9.817,0.641-15.618,0.447c-4.102-0.148-7.615,3.11-7.754,7.254c-0.138,4.144,3.11,7.615,7.254,7.754    c1.618,0.054,3.197,0.079,4.739,0.079c16.895,0,29.194-3.034,34.632-4.683c1.456,0.636,2.916,1.272,4.386,1.912    c16.223,7.057,33.8,14.705,53.916,26.798c-9.525,3.181-22.925,6.306-35.4,4.443c-4.099-0.61-7.922,2.216-8.534,6.317    c-0.612,4.101,2.216,7.922,6.317,8.534c3.323,0.496,6.666,0.714,9.986,0.714c18.253,0,35.654-6.599,43.335-9.961    c4.348,2.952,8.812,6.128,13.402,9.557C208.066,149.246,194.497,153.446,178.83,155.267z M171.571,100.188    c-0.592-7.132-2.754-21.369-10.63-34.733c-2.107-3.571-6.707-4.76-10.28-2.657c-3.572,2.106-4.762,6.708-2.657,10.28    c3.901,6.62,6.065,13.637,7.268,19.381c-5.243-2.371-10.33-4.585-15.294-6.745C112.645,73.822,91.296,64.52,70.207,39.44    c16.224,5.405,41.006,11.14,78.516,15.17c34.85,3.744,58.112,20.141,69.141,48.734c4.105,10.643,5.732,21.133,6.322,29.169    C204.629,118.068,187.341,108.073,171.571,100.188z M369.346,391.319l-20.064-1.126l-0.5-5.016    c-2.036-20.487-17.697-36.811-38.084-39.697c-0.064-0.01-0.128-0.018-0.194-0.025l-77.567-8.93    c-16.999-2.418-33.131-8.039-47.95-16.708c-1.316-0.77-2.643-1.512-3.978-2.239c-0.352-0.191-0.708-0.375-1.061-0.563    c-1.018-0.543-2.039-1.076-3.068-1.595c-0.363-0.183-0.728-0.362-1.093-0.542c-1.075-0.531-2.155-1.047-3.241-1.551    c-0.29-0.134-0.58-0.269-0.871-0.402c-1.277-0.582-2.562-1.145-3.854-1.689c-0.101-0.042-0.201-0.087-0.302-0.129    c-2.94-1.23-5.917-2.363-8.931-3.397c-0.078-0.027-0.157-0.051-0.235-0.078c-1-0.341-2.001-0.681-3.009-1    c0.056-0.175,0.107-0.353,0.151-0.535c6.087-25.153,27.447-44.022,53.15-46.954c1.536-0.176,2.98-0.82,4.135-1.846    c11.356-10.085,25.968-15.638,41.148-15.638s29.794,5.554,41.149,15.638c1.155,1.025,2.599,1.67,4.135,1.846    c25.704,2.932,47.063,21.801,53.15,46.954c0.727,3.004,3.22,5.255,6.282,5.673c26.848,3.667,48.394,24.959,52.732,51.419    L369.346,391.319z" data-original="#000000" class="active-path" data-old_color="#000000" fill="#03C6FC"/>
	</g>
</g></g> </svg>
