<?xml version="1.0"?>
<svg xmlns="http://www.w3.org/2000/svg" height="512px" viewBox="0 0 496 496.384" width="512px" class=""><g><path d="m136.191406 152c0 4.417969-3.582031 8-8 8-4.417968 0-8-3.582031-8-8s3.582032-8 8-8c4.417969 0 8 3.582031 8 8zm0 0" data-original="#000000" class="active-path" data-old_color="#000000" fill="#03C6FC"/><path d="m216.191406 152c0 4.417969-3.582031 8-8 8-4.417968 0-8-3.582031-8-8s3.582032-8 8-8c4.417969 0 8 3.582031 8 8zm0 0" data-original="#000000" class="active-path" data-old_color="#000000" fill="#03C6FC"/><path d="m168.191406 216c-8.824218 0-16-7.175781-16-16h-16c0 17.648438 14.351563 32 32 32 17.648438 0 32-14.351562 32-32h-16c0 8.824219-7.175781 16-16 16zm0 0" data-original="#000000" class="active-path" data-old_color="#000000" fill="#03C6FC"/><path d="m322.34375 314.535156-37.65625 37.65625 37.65625 37.65625 11.3125-11.3125-26.34375-26.34375 26.34375-26.34375zm0 0" data-original="#000000" class="active-path" data-old_color="#000000" fill="#03C6FC"/><path d="m370.34375 325.847656 26.34375 26.34375-26.34375 26.34375 11.3125 11.3125 37.65625-37.65625-37.65625-37.65625zm0 0" data-original="#000000" class="active-path" data-old_color="#000000" fill="#03C6FC"/><path d="m336.113281 398.90625 15.972657-96.003906 15.78125 2.625-15.96875 96.003906zm0 0" data-original="#000000" class="active-path" data-old_color="#000000" fill="#03C6FC"/><path d="m352 256.191406c-52.9375 0-96 43.066406-96 96 0 52.9375 43.0625 96 96 96s96-43.0625 96-96c0-52.933594-43.0625-96-96-96zm0 176c-44.113281 0-80-35.886718-80-80 0-44.113281 35.886719-80 80-80s80 35.886719 80 80c0 44.113282-35.894531 80-80 80zm0 0" data-original="#000000" class="active-path" data-old_color="#000000" fill="#03C6FC"/><path d="m476.792969 324c-3.207031-14.335938-8.777344-27.808594-16.59375-40.160156l9.160156-18.207032-30.800781-30.800781-18.207032 9.160157c-12.351562-7.824219-25.824218-13.382813-40.160156-16.59375l-6.414062-19.398438h-43.5625l-6.40625 19.398438c-6.808594 1.53125-13.402344 3.617187-19.792969 6.195312-10.183594-13.601562-15.824219-30.21875-15.824219-47.257812v-66.335938c0-66.167969-53.832031-120-120-120-66.167968 0-120 53.832031-120 120v73.351562c0 25.976563-13.832031 50.425782-36.121094 63.792969l-7.597656 4.558594 5.320313 7.097656c.773437 1.03125 14.414062 18.671875 41.007812 28.566407l-12.320312 4.113281c-22.894531 7.625-38.289063 28.976562-38.289063 53.113281v77.40625h237.847656l-3.390624 6.753906 30.800781 30.796875 18.207031-9.160156c12.351562 7.824219 25.824219 13.386719 40.160156 16.59375l6.40625 19.398437h43.5625l6.414063-19.398437c14.335937-3.207031 27.808593-8.777344 40.160156-16.59375l18.207031 9.160156 30.800782-30.796875-9.160157-18.210937c7.824219-12.351563 13.386719-25.824219 16.59375-40.160157l19.390625-6.40625v-43.5625zm-187.433594-83.289062c-1.910156 1.082031-3.847656 2.105468-5.710937 3.28125l-18.207032-9.160157-30.800781 30.800781 8.910156 17.71875-27.359375-9.121093v-16.574219c17.679688-11.558594 30.914063-29.304688 36.710938-50.136719 7.625-.910156 14.539062-3.917969 20.234375-8.511719 2.03125 14.96875 7.550781 29.296876 16.222656 41.703126zm-81.550781 89.703124v12.417969l-27.792969-23.34375 30.335937-30.335937 25.929688 8.640625c-3.929688 8.359375-7.035156 17.085937-9.074219 26.207031zm-39.617188-21.726562-32-32v-10.800781c9.9375 3.898437 20.703125 6.113281 32 6.113281s22.066406-2.214844 32-6.113281v10.800781zm-11.832031 11.824219-26.71875 26.71875-30.664063-49.0625 27.046876-9.015625 30.855468 30.847656zm11.832031-64.511719c-39.703125 0-72-32.296875-72-72v-56h144v56c0 39.703125-32.296875 72-72 72zm87.664063-65.367188c.167969-2.199218.335937-4.394531.335937-6.632812v-38.527344c9.289063 3.3125 16 12.113282 16 22.527344 0 10.535156-6.871094 19.414062-16.335937 22.632812zm-87.664063-174.632812c57.34375 0 104 46.65625 104 104v16.207031c-4.671875-3.535156-10.054687-6.183593-16-7.390625v-16.816406h-176v16.808594c-5.945312 1.214844-11.328125 3.855468-16 7.390625v-16.199219c0-57.34375 46.65625-104 104-104zm-88 129.472656v38.527344c0 2.238281.167969 4.433594.335938 6.632812-9.464844-3.21875-16.335938-12.097656-16.335938-22.632812 0-10.414062 6.710938-19.214844 16-22.527344zm-51.800781 119.910156c20.664063-15.710937 33.625-39.902343 35.433594-65.886718 5.582031 4.328125 12.289062 7.152344 19.65625 8.03125 5.792969 20.839844 19.03125 38.578125 36.710937 50.136718v16.574219l-39.945312 13.320313c-26.277344-2.175782-43.550782-14.460938-51.855469-22.175782zm-12.199219 89.210938c0-17.242188 10.992188-32.496094 27.351563-37.945312l38.671875-12.886719c.472656.023437.953125.039062 1.425781.054687l43.09375 68.953125 41.921875-41.921875 39.152344 32.886719v10.25l19.398437 6.40625c2.824219 12.617187 7.585938 24.511719 13.984375 35.617187h-165.597656c-7.328125-7.558593-11.402344-17.464843-11.402344-28.007812 0-10.761719 4.183594-20.871094 11.800782-28.488281l4.199218-4.199219v-19.3125h-16v12.695312c-10.320312 10.570313-16 24.496094-16 39.304688 0 9.992188 2.640625 19.566406 7.496094 28h-39.496094zm464 7.820312-17.304687 5.722657-.863281 4.648437c-2.863282 15.453125-8.808594 29.816406-17.640626 42.695313l-2.679687 3.894531 8.167969 16.234375-14.457032 14.453125-16.230468-8.167969-3.894532 2.679688c-12.882812 8.832031-27.242187 14.777343-42.695312 17.640625l-4.648438.863281-5.730468 17.304687h-20.4375l-5.722656-17.304687-4.648438-.863281c-15.453125-2.863282-29.8125-8.808594-42.695312-17.640625l-3.894532-2.679688-16.230468 8.167969-14.457032-14.453125 8.167969-16.234375-2.679687-3.894531c-8.832032-12.878907-14.777344-27.242188-17.640626-42.695313l-.863281-4.648437-17.304687-5.722657v-20.4375l17.304687-5.730468.863281-4.644532c2.863282-15.457031 8.808594-29.816406 17.640626-42.699218l2.679687-3.894532-8.167969-16.230468 14.457032-14.457032 16.230468 8.167969 3.894532-2.679687c12.882812-8.832032 27.242187-14.777344 42.695312-17.640625l4.648438-.863281 5.722656-17.304688h20.4375l5.730468 17.304688 4.648438.863281c15.453125 2.863281 29.8125 8.808593 42.695312 17.640625l3.894532 2.679687 16.230468-8.167969 14.457032 14.457032-8.167969 16.230468 2.679687 3.894532c8.832032 12.882812 14.777344 27.242187 17.640626 42.699218l.863281 4.644532 17.304687 5.730468zm0 0" data-original="#000000" class="active-path" data-old_color="#000000" fill="#03C6FC"/></g> </svg>
