<?xml version="1.0"?>
<svg xmlns="http://www.w3.org/2000/svg" xmlns:xlink="http://www.w3.org/1999/xlink" version="1.1" id="Capa_1" x="0px" y="0px" width="512px" height="512px" viewBox="0 0 69.993 69.992" style="enable-background:new 0 0 69.993 69.992;" xml:space="preserve"><g><g id="Page-1_3_">
		<path id="Fill-10" d="M19.404,13.251H5.836l-0.884,1.58c-0.234,0.417-0.668,0.652-1.114,0.652    c-0.211,0-0.424-0.052-0.622-0.163c-0.613-0.344-0.833-1.121-0.489-1.735l1.25-2.232c0.225-0.402,0.651-0.652,1.112-0.652h14.314    c0.704,0,1.275,0.571,1.275,1.275C20.679,12.68,20.107,13.251,19.404,13.251L19.404,13.251z M59.604,65.374    c-0.613-0.343-1.391-0.124-1.735,0.489l-0.885,1.58H43.417c-0.704,0-1.275,0.57-1.275,1.274s0.571,1.274,1.275,1.274h14.314    c0.461,0,0.888-0.25,1.112-0.651l1.25-2.231C60.437,66.494,60.217,65.718,59.604,65.374L59.604,65.374z M60.077,0    c-4.06,0-7.351,3.29-7.351,7.35c0,4.059,3.291,7.35,7.351,7.35s7.351-3.291,7.351-7.35C67.427,3.29,64.136,0,60.077,0L60.077,0z     M46.575,35.849l7.017,11.019c0.518,0.813,0.64,1.818,0.331,2.732l-3.121,9.225h2.908c1.761,0,3.187,1.426,3.187,3.186    c0,1.761-1.426,3.188-3.187,3.188h-7.351c-1.026,0-1.99-0.496-2.589-1.33s-0.759-1.905-0.43-2.879l4.055-11.985l-7.732-12.144    c-0.085-0.134-0.146-0.273-0.209-0.414c-15.038-0.379-22.268-10.232-24.717-14.55H9.475c-1.761,0-3.187-1.426-3.187-3.186    c0-1.761,1.426-3.187,3.187-3.187h7.216c1.29,0,2.454,0.778,2.946,1.97c0.212,0.501,5.516,12.597,20.708,12.597    c9.625,0,13.342-4.698,14.775-8.145c-2.652,1.413-6.653,2.892-11.834,2.892c-10.154,0-14.894-7.015-15.09-7.314    c-0.969-1.469-0.563-3.446,0.907-4.414c1.461-0.964,3.425-0.567,4.398,0.883c0.159,0.229,3.202,4.471,9.785,4.471    c5.813,0,9.52-2.392,10.747-3.327c1.672,1.301,3.766,2.084,6.044,2.084c0.622,0,1.228-0.064,1.818-0.175    c0.335,0.541,0.518,1.184,0.474,1.869C62.359,19.07,61.278,32.777,46.575,35.849L46.575,35.849z" data-original="#000000" class="active-path" data-old_color="#000000" fill="#03C6FC"/>
	</g></g> </svg>
