<?xml version="1.0"?>
<svg xmlns="http://www.w3.org/2000/svg" height="512px" viewBox="0 0 496 496" width="512px" class=""><g><path d="m272 264h-16v16h-16v16h16v16h16v-16h16v-16h-16zm0 0" data-original="#000000" class="active-path" data-old_color="#000000" fill="#03C6FC"/><path d="m496 152v-80h-40v-30.113281l20.945312-41.886719h-89.890624l20.945312 41.886719v30.113281h-20.449219c-5.550781-9.519531-15.757812-16-27.550781-16h-128c-17.648438 0-32 14.351562-32 32h-40v-32h-120c-22.054688 0-40 17.945312-40 40v8h88v16h-88v8c0 22.054688 17.945312 40 40 40h120v-32h40c0 17.648438 14.351562 32 32 32h5.121094l-26.480469 84.753906c-6.710937 10.109375-10.640625 22.222656-10.640625 35.246094 0 35.289062 28.710938 64 64 64 3.160156 0 6.246094-.304688 9.289062-.753906l12.949219 64.753906h-11.183593l-16 32h-19.054688v48h256v-48h-19.054688l-16-32h-12.945312v-60.527344l-118.800781-71.28125 29.039062-116.191406h1.761719c11.792969 0 22-6.480469 27.550781-16h20.449219v22.113281l-20.945312 41.886719h89.890624l-20.945312-41.886719v-22.113281zm-478.632812-64c3.304687-9.3125 12.199218-16 22.632812-16h104v16zm126.632812 64h-104c-10.433594 0-19.328125-6.6875-22.632812-16h126.632812zm16-32h-56v-16h96v16zm56 168c0-26.472656 21.527344-48 48-48s48 21.527344 48 48-21.527344 48-48 48-48-21.527344-48-48zm110.59375 13.289062 52.839844 31.703126-85.578125 39.496093-5.09375-25.480469c19.070312-8.03125 33.445312-25.046874 37.832031-45.71875zm68.292969 40.976563 27.792969 16.679687-120.800782 53.6875-4.800781-24.007812 98.273437-45.351562zm85.113281 137.734375h-224v-16h224zm-20.945312-32h-182.109376l8-16h166.109376zm-125.359376-32 98.304688-43.6875v43.6875zm-14.0625-159.511719c-11.015624-19.367187-31.800781-32.488281-55.632812-32.488281-10.824219 0-21.015625 2.71875-29.960938 7.488281l19.839844-63.488281h87.882813zm56.367188-120.488281c0 8.824219-7.175781 16-16 16h-128c-8.824219 0-16-7.175781-16-16v-48c0-8.824219 7.175781-16 16-16h128c8.824219 0 16 7.175781 16 16zm75.054688-120-8 16h-22.109376l-8-16zm-27.054688 32h16v24h-16zm56 40v16h-88v-16zm-88 32h88v16h-88zm20.945312 80 8-16h22.109376l8 16zm27.054688-32h-16v-16h16zm0 0" data-original="#000000" class="active-path" data-old_color="#000000" fill="#03C6FC"/><path d="m264 88c-13.230469 0-24 10.769531-24 24s10.769531 24 24 24 24-10.769531 24-24-10.769531-24-24-24zm0 32c-4.414062 0-8-3.59375-8-8s3.585938-8 8-8 8 3.59375 8 8-3.585938 8-8 8zm0 0" data-original="#000000" class="active-path" data-old_color="#000000" fill="#03C6FC"/><path d="m328 88c-13.230469 0-24 10.769531-24 24s10.769531 24 24 24 24-10.769531 24-24-10.769531-24-24-24zm0 32c-4.414062 0-8-3.59375-8-8s3.585938-8 8-8 8 3.59375 8 8-3.585938 8-8 8zm0 0" data-original="#000000" class="active-path" data-old_color="#000000" fill="#03C6FC"/><path d="m167.425781 364.105469 12.941407-15.503907-32.96875-32.976562-15.503907 12.949219c-3.480469-1.75-7.078125-3.238281-10.78125-4.460938l-1.800781-20.113281h-46.625l-1.808594 20.121094c-3.703125 1.222656-7.304687 2.710937-10.78125 4.464844l-15.503906-12.953126-32.96875 32.976563 12.941406 15.503906c-1.75 3.472657-3.238281 7.070313-4.460937 10.773438l-20.105469 1.800781v46.625l20.121094 1.808594c1.214844 3.695312 2.710937 7.304687 4.464844 10.773437l-12.945313 15.503907 32.96875 32.976562 15.503906-12.949219c3.480469 1.75 7.078125 3.238281 10.78125 4.460938l1.792969 20.113281h46.625l1.808594-20.121094c3.703125-1.222656 7.304687-2.710937 10.78125-4.464844l15.503906 12.953126 32.96875-32.976563-12.941406-15.503906c1.75-3.472657 3.238281-7.070313 4.460937-10.773438l20.105469-1.800781v-46.625l-20.121094-1.808594c-1.214844-3.703125-2.710937-7.304687-4.453125-10.773437zm8.574219 44.582031-16.632812 1.496094-1.390626 5.503906c-1.511718 6.007812-3.886718 11.746094-7.066406 17.046875l-2.910156 4.875 10.710938 12.824219-12.277344 12.285156-12.832032-10.71875-4.867187 2.910156c-5.292969 3.167969-11.03125 5.546875-17.054687 7.066406l-5.503907 1.390626-1.488281 16.632812h-17.375l-1.496094-16.632812-5.503906-1.390626c-6.023438-1.519531-11.761719-3.898437-17.054688-7.066406l-4.859374-2.910156-12.832032 10.710938-12.277344-12.285157 10.710938-12.816406-2.910156-4.875c-3.167969-5.300781-5.546875-11.039063-7.066406-17.046875l-1.390626-5.503906-16.632812-1.496094v-17.375l16.632812-1.496094 1.390626-5.503906c1.511718-6.007812 3.886718-11.746094 7.066406-17.046875l2.910156-4.875-10.710938-12.824219 12.277344-12.285156 12.832032 10.71875 4.867187-2.910156c5.292969-3.167969 11.03125-5.546875 17.054687-7.066406l5.503907-1.390626 1.488281-16.632812h17.375l1.496094 16.632812 5.503906 1.390626c6.023438 1.519531 11.761719 3.898437 17.054688 7.066406l4.859374 2.910156 12.832032-10.710938 12.277344 12.285157-10.710938 12.816406 2.910156 4.875c3.167969 5.300781 5.546875 11.039063 7.066406 17.046875l1.390626 5.503906 16.632812 1.496094zm0 0" data-original="#000000" class="active-path" data-old_color="#000000" fill="#03C6FC"/><path d="m96 352c-26.472656 0-48 21.527344-48 48s21.527344 48 48 48 48-21.527344 48-48-21.527344-48-48-48zm0 80c-17.648438 0-32-14.351562-32-32s14.351562-32 32-32 32 14.351562 32 32-14.351562 32-32 32zm0 0" data-original="#000000" class="active-path" data-old_color="#000000" fill="#03C6FC"/><path d="m88 184h16v16h-16zm0 0" data-original="#000000" class="active-path" data-old_color="#000000" fill="#03C6FC"/><path d="m88 216h16v16h-16zm0 0" data-original="#000000" class="active-path" data-old_color="#000000" fill="#03C6FC"/><path d="m88 248h16v16h-16zm0 0" data-original="#000000" class="active-path" data-old_color="#000000" fill="#03C6FC"/></g> </svg>
