<?xml version="1.0"?>
<svg xmlns="http://www.w3.org/2000/svg" height="512px" viewBox="-64 0 480 480.00075" width="512px" class=""><g><path d="m8 480h304c4.417969 0 8-3.582031 8-8v-108.9375c7.746094-9.042969 32-41.902344 32-99.0625s-24.253906-90.019531-32-99.058594v-28.941406c0-4.417969-3.582031-8-8-8h-60.6875l50.34375-50.34375c3.125-3.121094 3.125-8.1875 0-11.3125l-2.34375-2.34375 18.34375-18.34375c3.125-3.125 3.125-8.1875 0-11.3125l-32-32c-3.121094-3.125-8.1875-3.125-11.3125 0l-18.34375 18.34375-2.34375-2.34375c-3.125-3.125-8.1875-3.125-11.3125 0l-128 128c-3.125 3.125-3.125 8.191406 0 11.3125l2.34375 2.34375-26.34375 26.34375c-3.125 3.125-3.125 8.191406 0 11.3125l32 32c3.125 3.125 8.1875 3.125 11.3125 0l26.34375-26.34375 2.34375 2.34375c3.125 3.125 8.191406 3.125 11.3125 0l20.320312-20.320312c17.320313 11.5625 40.636719 7.734374 53.347657-8.761719 10.292969 5.394531 48.675781 29.40625 48.675781 87.425781 0 52.605469-41.625 82.367188-50.304688 88h-37.695312v-56c0-4.417969-3.582031-8-8-8h-144c-4.417969 0-8 3.582031-8 8v32c0 4.417969 3.582031 8 8 8h104v16h-24c-4.417969 0-8 3.582031-8 8v56h-88c-22.082031.027344-39.9726562 17.921875-40 40v16c0 4.417969 3.582031 8 8 8zm272-460.6875 20.6875 20.6875-12.6875 12.6875-20.6875-20.6875zm-152 193.375-20.6875-20.6875 20.6875-20.6875 20.6875 20.6875zm88-36.6875c-13.253906 0-24-10.746094-24-24s10.746094-24 24-24 24 10.746094 24 24c-.015625 13.25-10.75 23.984375-24 24zm22.023438-57.335938c-15.835938-10.511718-36.886719-8.40625-50.324219 5.035157-13.441407 13.4375-15.546875 34.488281-5.035157 50.324219l-14.664062 14.664062-36.6875-36.6875 116.6875-116.6875 36.6875 36.6875zm17.167968 41.335938c1.078125-5.277344 1.078125-10.71875 0-16h48.808594v16zm56.808594 104c1.117188-33.488281-12.722656-65.738281-37.765625-88h34.144531c18.933594 25.34375 28.675782 56.382812 27.621094 88 1.054688 31.617188-8.6875 62.65625-27.617188 88h-36.71875c25.320313-22.285156 39.980469-54.273438 40.335938-88zm-248 56v-16h128v16zm128 16v56c0 4.417969-3.582031 8-8 8s-8-3.582031-8-8v-56zm-48 32h16v24c0 13.253906 10.746094 24 24 24s24-10.746094 24-24v-24h96v48h-160zm-128 88c.015625-13.25 10.75-23.984375 24-24h264v32h-288zm0 0" data-original="#000000" class="active-path" data-old_color="#000000" fill="#03C6FC"/><path d="m272 384h16v16h-16zm0 0" data-original="#000000" class="active-path" data-old_color="#000000" fill="#03C6FC"/><path d="m240 384h16v16h-16zm0 0" data-original="#000000" class="active-path" data-old_color="#000000" fill="#03C6FC"/></g> </svg>
