<?xml version="1.0"?>
<svg xmlns="http://www.w3.org/2000/svg" xmlns:xlink="http://www.w3.org/1999/xlink" version="1.1" id="Layer_1" x="0px" y="0px" viewBox="0 0 496 496" style="enable-background:new 0 0 496 496;" xml:space="preserve" width="512px" height="512px"><g><g>
	<g>
		<g>
			<path d="M454.144,88C455.32,82.848,456,77.504,456,72c0-39.704-32.296-72-72-72c-39.704,0-72,32.296-72,72     c0,5.504,0.68,10.848,1.856,16H32v88v8v21.448C12.648,214.632,0,234.28,0,256c0,21.72,12.648,41.368,32,50.552V328v8v88h464V88     H454.144z M384,16c30.872,0,56,25.128,56,56s-25.128,56-56,56s-56-25.128-56-56S353.128,16,384,16z M80,176v-40h271.16     c9.856,5.08,21,8,32.84,8c11.84,0,22.976-2.92,32.84-8H448v240H80v-40h16V176H80z M48,104h271.6     c2.912,5.832,6.576,11.2,10.888,16H64v56H48V104z M16,256c0-16.88,10.72-32.024,26.672-37.672l5.328-1.88V192h32v128H48v-24.448     l-5.328-1.88C26.72,288.024,16,272.88,16,256z M480,408H48v-72h16v56h400V120h-26.488c4.312-4.8,7.976-10.168,10.888-16H480V408z     " data-original="#000000" class="active-path" data-old_color="#000000" fill="#03C6FC"/>
			<path d="M200,288h-32v-24h96v24h-32v64h80v-64h-32v-24h96v24h-32v64h80v-64h-32v-40H280v-24h32v-64h-80v64h32v24H152v40h-32v64     h80V288z M408,304v32h-48v-32H408z M248,208v-32h48v32H248z M296,304v32h-48v-32H296z M184,336h-48v-32h48V336z" data-original="#000000" class="active-path" data-old_color="#000000" fill="#03C6FC"/>
			<path d="M56,448c-13.232,0-24,10.768-24,24s10.768,24,24,24h291.312l24-24l-24-24H56z M72,480H56c-4.416,0-8-3.584-8-8     c0-4.416,3.584-8,8-8h16V480z M104,480H88v-16h16V480z M340.688,480H120v-16h220.688l8,8L340.688,480z" data-original="#000000" class="active-path" data-old_color="#000000" fill="#03C6FC"/>
			<rect x="376" y="192" width="16" height="16" data-original="#000000" class="active-path" data-old_color="#000000" fill="#03C6FC"/>
			<rect x="376" y="160" width="16" height="16" data-original="#000000" class="active-path" data-old_color="#000000" fill="#03C6FC"/>
			<path d="M392,96h-16c-4.416,0-8-3.584-8-8h-16c0,13.232,10.768,24,24,24h16c13.232,0,24-10.768,24-24s-10.768-24-24-24h-16     c-4.416,0-8-3.584-8-8s3.584-8,8-8h16c4.416,0,8,3.584,8,8h16c0-13.232-10.768-24-24-24h-16c-13.232,0-24,10.768-24,24     s10.768,24,24,24h16c4.416,0,8,3.584,8,8S396.416,96,392,96z" data-original="#000000" class="active-path" data-old_color="#000000" fill="#03C6FC"/>
		</g>
	</g>
</g></g> </svg>
